<?xml version="1.0" encoding="utf-8"?>
<!-- Generator: Adobe Illustrator 15.0.0, SVG Export Plug-In . SVG Version: 6.00 Build 0)  -->
<!DOCTYPE svg PUBLIC "-//W3C//DTD SVG 1.1//EN" "http://www.w3.org/Graphics/SVG/1.1/DTD/svg11.dtd">
<svg version="1.1" id="Layer_1" xmlns="http://www.w3.org/2000/svg" xmlns:xlink="http://www.w3.org/1999/xlink" x="0px" y="0px"
	 width="170px" height="50px" viewBox="0 0 170 50" enable-background="new 0 0 170 50" xml:space="preserve">
<g>
	<path fill="#FFFFFF" d="M30.484,15.903c0-1.02-0.278-1.343-1.157-1.389l-1.944-0.14v-3.749h7.826v3.472
		c1.064-2.315,3.519-4.167,6.574-4.167c1.53,0,2.917,0.278,4.446,1.019v6.898l-4.308,0.325v-2.13c0-0.555-0.091-0.973-0.463-1.158
		c-0.416-0.185-0.74-0.231-1.249-0.231c-2.501,0-4.213,1.991-4.213,4.678v10.741l4.028,0.185v3.659H27.615v-3.519l1.529-0.141
		c0.879-0.093,1.341-0.37,1.341-1.528V15.903z"/>
	<path fill="#FFFFFF" d="M72.92,9.93c3.425,0,10.324,1.064,10.324,11.715c0,8.889-4.955,12.963-11.067,12.963
		c-6.205,0-10.277-3.982-10.277-12.362C61.9,12.615,68.148,9.93,72.92,9.93 M77.595,22.386c0-5.186-1.25-8.38-4.954-8.38
		c-3.659,0-5.14,3.147-5.14,7.593c0,4.305,0.602,8.936,5.048,8.936C76.16,30.534,77.595,27.2,77.595,22.386"/>
	<path fill="#FFFFFF" d="M88.435,15.903c0-1.02-0.277-1.343-1.155-1.389l-1.945-0.14v-3.749h7.823v3.472
		c1.065-2.315,3.519-4.167,6.575-4.167c1.527,0,2.919,0.278,4.443,1.019v6.898l-4.305,0.325v-2.13c0-0.555-0.092-0.973-0.462-1.158
		c-0.419-0.185-0.741-0.231-1.25-0.231c-2.5,0-4.214,1.991-4.214,4.678v10.742l4.028,0.184v3.659H85.565v-3.519l1.528-0.141
		c0.878-0.093,1.342-0.37,1.342-1.528V15.903z"/>
	<path fill="#FFFFFF" d="M155.002,29.516c-1.62,2.314-4.443,3.611-7.502,3.611c-4.631,0-7.177-2.547-7.177-8.011v-9.307
		c0-0.971-0.369-1.249-1.158-1.295l-1.481-0.094v-3.795h8.148v13.289c0,2.823,0.464,4.954,3.428,4.954
		c3.243,0,4.955-2.177,4.955-4.584v-8.38c0-1.02-0.28-1.389-1.159-1.389l-1.48-0.094v-3.795h8.148v22.409
		c0,7.64-3.841,10.788-10.742,10.788c-2.919,0-6.759-0.556-8.702-1.528v-4.837l4.397-0.37v0.624c0,0.881,0.231,1.343,1.065,1.667
		c0.878,0.324,1.896,0.463,3.286,0.463c4.261,0,5.974-2.594,5.974-6.807V29.516z"/>
	<path fill="#FFFFFF" d="M115.339,30.072V10.625h-8.289v3.842l1.62,0.094c0.88,0,1.16,0.323,1.16,1.343l0.024,18.012h8.122v-3.704
		L115.339,30.072z"/>
	<path fill="#FFFFFF" d="M57.388,30.072V10.625h-8.287v3.842l1.619,0.094c0.881,0,1.16,0.323,1.16,1.343l-0.026,18.012h8.173v-3.704
		L57.388,30.072z"/>
	<path fill="#FFFFFF" d="M134.517,29.376c-0.741,0.463-1.899,0.974-3.148,0.974c-1.899,0-3.011-0.834-3.011-3.658V5.716h-3.009
		c-0.973,2.641-2.084,5.14-5.325,5.418l-0.461,3.38h3.287v12.362c0,3.24-0.048,7.686,7.175,7.686c2.177,0,4.492-0.646,5.882-1.618
		L134.517,29.376z"/>
	<path fill="#FFFFFF" d="M16.67,9.93c-3.938,0-6.484,2.129-7.317,3.704v-3.009H1.528v3.749l1.945,0.14
		c0.879,0,1.156,0.37,1.156,1.389L4.598,43.499h9.106v-3.658l-3.75-0.185v-6.39c1.204,0.74,3.148,1.342,4.954,1.342
		c6.113,0,10.141-4.397,10.141-12.918C25.049,13.403,21.808,9.93,16.67,9.93 M14.029,30.211c-1.204,0-2.871-0.372-4.075-1.159
		V18.403c0-2.13,2.038-3.983,4.676-3.983c2.453,0,4.678,1.576,4.678,7.734C19.309,26.182,17.964,30.211,14.029,30.211"/>
	<polygon fill="#FFFFFF" points="164.653,30.279 164.653,30.826 163.575,30.826 163.575,33.865 162.909,33.865 162.909,30.826
		161.824,30.826 161.824,30.279 	"/>
	<path fill="#FFFFFF" d="M166.956,32.542c0.025,0.058,0.05,0.114,0.072,0.172c0.024-0.059,0.045-0.119,0.071-0.177
		c0.023-0.058,0.051-0.111,0.08-0.166l1.062-1.986c0.014-0.025,0.027-0.045,0.04-0.059c0.015-0.017,0.032-0.027,0.048-0.034
		c0.017-0.007,0.037-0.01,0.058-0.012c0.021,0,0.048-0.001,0.078-0.001h0.504v3.586h-0.589v-2.316c0-0.044,0.001-0.092,0.005-0.142
		c0.001-0.053,0.006-0.104,0.011-0.157l-1.084,2.034c-0.025,0.046-0.058,0.082-0.098,0.107c-0.039,0.026-0.086,0.039-0.141,0.039
		h-0.089c-0.054,0-0.102-0.013-0.14-0.039c-0.04-0.025-0.073-0.062-0.099-0.107l-1.097-2.041c0.007,0.054,0.011,0.106,0.014,0.161
		c0.004,0.052,0.004,0.099,0.004,0.145v2.316h-0.589v-3.586h0.505c0.029,0,0.054,0.001,0.076,0.001
		c0.021,0.002,0.04,0.005,0.058,0.012s0.034,0.018,0.048,0.034c0.018,0.014,0.031,0.033,0.044,0.059l1.07,1.992
		C166.907,32.429,166.934,32.484,166.956,32.542"/>
</g>
<g>
	<path fill="#FFFFFF" d="M30.484,15.903c0-1.02-0.278-1.343-1.157-1.389l-1.944-0.14v-3.749h7.826v3.472
		c1.064-2.315,3.519-4.167,6.574-4.167c1.53,0,2.917,0.278,4.446,1.019v6.898l-4.308,0.325v-2.13c0-0.555-0.091-0.973-0.463-1.158
		c-0.416-0.185-0.74-0.231-1.249-0.231c-2.501,0-4.213,1.991-4.213,4.678v10.741l4.028,0.185v3.659H27.615v-3.519l1.529-0.141
		c0.879-0.093,1.341-0.37,1.341-1.528V15.903z"/>
	<path fill="#FFFFFF" d="M72.92,9.93c3.425,0,10.324,1.064,10.324,11.715c0,8.889-4.955,12.963-11.067,12.963
		c-6.205,0-10.277-3.982-10.277-12.362C61.9,12.615,68.148,9.93,72.92,9.93 M77.595,22.386c0-5.186-1.25-8.38-4.954-8.38
		c-3.659,0-5.14,3.147-5.14,7.593c0,4.305,0.602,8.936,5.048,8.936C76.16,30.534,77.595,27.2,77.595,22.386"/>
	<path fill="#FFFFFF" d="M88.435,15.903c0-1.02-0.277-1.343-1.155-1.389l-1.945-0.14v-3.749h7.823v3.472
		c1.065-2.315,3.519-4.167,6.575-4.167c1.527,0,2.919,0.278,4.443,1.019v6.898l-4.305,0.325v-2.13c0-0.555-0.092-0.973-0.462-1.158
		c-0.419-0.185-0.741-0.231-1.25-0.231c-2.5,0-4.214,1.991-4.214,4.678v10.742l4.028,0.184v3.659H85.565v-3.519l1.528-0.141
		c0.878-0.093,1.342-0.37,1.342-1.528V15.903z"/>
	<path fill="#FFFFFF" d="M155.002,29.516c-1.62,2.314-4.443,3.611-7.502,3.611c-4.631,0-7.177-2.547-7.177-8.011v-9.307
		c0-0.971-0.369-1.249-1.158-1.295l-1.481-0.094v-3.795h8.148v13.289c0,2.823,0.464,4.954,3.428,4.954
		c3.243,0,4.955-2.177,4.955-4.584v-8.38c0-1.02-0.28-1.389-1.159-1.389l-1.48-0.094v-3.795h8.148v22.409
		c0,7.64-3.841,10.788-10.742,10.788c-2.919,0-6.759-0.556-8.702-1.528v-4.837l4.397-0.37v0.624c0,0.881,0.231,1.343,1.065,1.667
		c0.878,0.324,1.896,0.463,3.286,0.463c4.261,0,5.974-2.594,5.974-6.807V29.516z"/>
	<path fill="#FFFFFF" d="M115.339,30.072V10.625h-8.289v3.842l1.62,0.094c0.88,0,1.16,0.323,1.16,1.343l0.024,18.012h8.122v-3.704
		L115.339,30.072z"/>
	<path fill="#FFFFFF" d="M57.388,30.072V10.625h-8.287v3.842l1.619,0.094c0.881,0,1.16,0.323,1.16,1.343l-0.026,18.012h8.173v-3.704
		L57.388,30.072z"/>
	<polygon fill="#FFFFFF" stroke="#FFFFFF" stroke-miterlimit="10" points="130.313,14.514 134,14.514 133.983,10.625
		130.313,10.625 	"/>
	<path fill="#FFFFFF" d="M134.517,29.376c-0.741,0.463-1.899,0.974-3.148,0.974c-1.899,0-3.011-0.834-3.011-3.658V5.716h-3.009
		c-0.973,2.641-2.084,5.14-5.325,5.418l-0.461,3.38h3.287v12.362c0,3.24-0.048,7.686,7.175,7.686c2.177,0,4.492-0.646,5.882-1.618
		L134.517,29.376z"/>
	<path fill="#FFFFFF" d="M16.67,9.93c-3.938,0-6.484,2.129-7.317,3.704v-3.009H1.528v3.749l1.945,0.14
		c0.879,0,1.156,0.37,1.156,1.389L4.598,43.499h9.106v-3.658l-3.75-0.185v-6.39c1.204,0.74,3.148,1.342,4.954,1.342
		c6.113,0,10.141-4.397,10.141-12.918C25.049,13.403,21.808,9.93,16.67,9.93 M14.029,30.211c-1.204,0-2.871-0.372-4.075-1.159
		V18.403c0-2.13,2.038-3.983,4.676-3.983c2.453,0,4.678,1.576,4.678,7.734C19.309,26.182,17.964,30.211,14.029,30.211"/>
	<polygon fill="#FFFFFF" points="164.653,30.279 164.653,30.826 163.575,30.826 163.575,33.865 162.909,33.865 162.909,30.826
		161.824,30.826 161.824,30.279 	"/>
	<path fill="#FFFFFF" d="M166.956,32.542c0.025,0.058,0.05,0.114,0.072,0.172c0.024-0.059,0.045-0.119,0.071-0.177
		c0.023-0.058,0.051-0.111,0.08-0.166l1.062-1.986c0.014-0.025,0.027-0.045,0.04-0.059c0.015-0.017,0.032-0.027,0.048-0.034
		c0.017-0.007,0.037-0.01,0.058-0.012c0.021,0,0.048-0.001,0.078-0.001h0.504v3.586h-0.589v-2.316c0-0.044,0.001-0.092,0.005-0.142
		c0.001-0.053,0.006-0.104,0.011-0.157l-1.084,2.034c-0.025,0.046-0.058,0.082-0.098,0.107c-0.039,0.026-0.086,0.039-0.141,0.039
		h-0.089c-0.054,0-0.102-0.013-0.14-0.039c-0.04-0.025-0.073-0.062-0.099-0.107l-1.097-2.041c0.007,0.054,0.011,0.106,0.014,0.161
		c0.004,0.052,0.004,0.099,0.004,0.145v2.316h-0.589v-3.586h0.505c0.029,0,0.054,0.001,0.076,0.001
		c0.021,0.002,0.04,0.005,0.058,0.012s0.034,0.018,0.048,0.034c0.018,0.014,0.031,0.033,0.044,0.059l1.07,1.992
		C166.907,32.429,166.934,32.484,166.956,32.542"/>
</g>
</svg>
